# xmcd
#
# Track frame offsets:
#	150
#	17621
#	46930
#	64285
#	84975
#	104131
#	124194
#	139770
#	158107
#
# Disc length: 2364 seconds
#
# Revision: 16
# Processed by: cddbd v1.5.2PL0 Copyright (c) Steve Scherf et al.
# Submitted via: Jack! The Knife 20 Magnifico
#
DISCID=76093a09
DTITLE=Dio - Sacred Heart
DYEAR=1985
DGENRE=Metal
TTITLE0=King Of Rock And Roll
TTITLE1=Sacred Heart
TTITLE2=Another Lie
TTITLE3=Rock 'N' Roll Children
TTITLE4=Hungry For Heaven
TTITLE5=Like The Beat Of A Heart
TTITLE6=Just Another Day
TTITLE7=Fallen Angels
TTITLE8=Shoot Shoot
EXTD=Ronnie James Dio
EXTT0=Appice, Bain, Campbell, Dio
EXTT1=Appice, Bain, Campbell, Dio
EXTT2=Ronnie James Dio
EXTT3=Ronnie James Dio
EXTT4=Bain, Dio
EXTT5=Bain, Dio
EXTT6=Dio, Campbell
EXTT7=Appice, Bain, Campbell, Dio
EXTT8=Appice, Bain, Campbell, Dio
PLAYORDER=
